PathFileType	4	(X/Y/Z)	C:\Users\ebm\Documents\Erivelton\Erivelton\propulsion4.trc
DataRate	CameraRate	NumFrames	NumMarkers	Units	OrigDataRate	OrigDataStartFrame	OrigNumFrames
150.00	150.00	      12	28	mm	150.00	782	      1250
Frame#	Time	IJ			PX			C7			T8			RAC			RAS			RPS			RAI			RPI			RLE			RME			RRS			RUS			R3M			R5M			LAC			LAS			LPS			LAI			LPI			LLE			LME			LRS			LUS			L3M			L5M			RW			LW			V_mid_elbow_r			V_mid_elbow_l			V_mid_wrist_r			V_mid_wrist_l			V_mid_trunk_low			V_mid_trunk_upp			
		X1	Y1	Z1	X2	Y2	Z2	X3	Y3	Z3	X4	Y4	Z4	X5	Y5	Z5	X6	Y6	Z6	X7	Y7	Z7	X8	Y8	Z8	X9	Y9	Z9	X10	Y10	Z10	X11	Y11	Z11	X12	Y12	Z12	X13	Y13	Z13	X14	Y14	Z14	X15	Y15	Z15	X16	Y16	Z16	X17	Y17	Z17	X18	Y18	Z18	X19	Y19	Z19	X20	Y20	Z20	X21	Y21	Z21	X22	Y22	Z22	X23	Y23	Z23	X24	Y24	Z24	X25	Y25	Z25	X26	Y26	Z26	X27	Y27	Z27	X28	Y28	Z28	

782	5.207	2368.35669	1025.47900	-144.86917	2376.85986	847.53876	-139.69633	2245.33984	1125.49597	-152.17035	2153.42700	939.27606	-151.97653	2282.78882	1073.96533	40.88861	2248.02002	910.18689	113.74862	2210.81787	944.51721	130.53000	2204.08618	847.92950	142.70862	2171.44678	882.84155	159.17072	2119.90186	815.26691	185.46173	2089.41992	789.48077	110.00006	2312.23315	625.75177	137.03493	2275.58423	611.08209	180.54869	2354.69434	551.62079	189.97444	2316.13892	541.93225	193.60347	2262.21997	1059.84900	-342.65759	2233.46436	906.47919	-430.64850	2187.05664	920.08777	-426.05368	2215.73779	835.69287	-467.34277	2162.99780	848.77252	-462.98468	2170.96143	777.15668	-491.51639	2135.80933	749.58594	-419.35107	2375.02808	617.18530	-408.04333	2342.60791	583.23761	-465.58469	2422.95068	547.15710	-473.28784	2378.75586	531.09631	-476.30801	2288.09229	304.25912	168.10844	2323.28320	303.13892	-458.57449	
783	5.213	2377.15112	1025.23938	-144.70969	2382.30762	846.59369	-139.53468	2254.28613	1125.40845	-152.06224	2161.93506	939.75085	-151.91559	2292.03564	1073.75769	41.23990	2258.94116	909.31390	114.11208	2221.59570	943.22357	131.49550	2216.08838	846.57123	143.24091	2183.31592	881.06067	160.27414	2132.46118	813.09656	186.79141	2101.67993	787.05084	111.60605	2327.24805	625.39301	138.12762	2290.15894	610.54004	181.48389	2368.57666	550.07349	190.62198	2329.86694	541.13434	194.23337	2272.27905	1058.94861	-342.98181	2246.39209	904.64081	-431.46475	2199.96582	918.08405	-427.73700	2229.70679	833.52985	-468.08539	2176.91602	846.43182	-464.77545	2185.60449	774.99597	-492.73257	2149.39453	747.24127	-421.15875	2390.13354	615.92755	-407.99866	2356.93848	581.80627	-465.25085	2436.68457	544.59918	-472.88489	2392.22876	529.33093	-475.68805	2295.52100	304.44162	168.37965	2330.92383	303.21582	-458.33688	
784	5.220	2385.98877	1025.18640	-144.35556	2390.54297	846.31934	-139.14488	2263.41138	1125.41406	-151.95030	2170.55786	940.19061	-151.72966	2301.12061	1073.69092	41.80314	2270.21777	908.45233	114.28340	2232.61328	941.75983	132.40372	2228.36133	844.99603	143.81329	2195.41821	878.95642	161.31438	2145.13257	810.79272	188.07768	2114.20508	784.57129	112.93864	2342.49072	624.88013	139.34146	2304.86719	610.04126	182.23694	2382.11084	548.62988	191.52202	2342.68457	541.14606	195.47375	2282.46362	1057.99792	-343.37637	2259.62646	902.75513	-432.36777	2212.76685	916.16071	-429.30051	2243.63525	831.46698	-468.78516	2190.84741	844.12958	-466.34528	2200.30176	772.86847	-493.78882	2163.07349	744.89465	-422.92899	2405.09180	614.57489	-408.05826	2371.09595	580.13977	-464.94281	2451.21753	541.26758	-472.40314	2405.35767	527.52148	-475.13577	2302.89575	304.64279	168.69423	2338.59253	303.13568	-457.99374	
785	5.227	2394.85449	1025.11084	-143.90576	2398.67920	845.96545	-138.78096	2272.36963	1125.36230	-151.86670	2179.16260	940.67322	-151.58388	2310.41382	1073.48486	41.96871	2281.46094	907.48108	114.44883	2243.71851	940.15234	133.27812	2241.02344	843.32178	144.27882	2207.77100	876.67444	162.25360	2158.09009	808.33893	189.27277	2126.97217	781.98199	114.19846	2357.31299	624.18103	140.20636	2319.77979	609.61102	182.98151	2395.89258	546.70575	192.10425	2356.17920	540.29089	196.28580	2292.73657	1057.11658	-343.77090	2272.34253	901.10095	-432.97546	2225.75732	914.24054	-430.63651	2257.53662	829.47131	-469.30142	2205.19482	842.47833	-467.90396	2214.84180	770.81317	-494.73792	2176.82007	742.50092	-424.44641	2419.95581	613.17004	-408.30927	2385.18994	578.36371	-464.65109	2464.82861	538.25629	-471.94446	2418.33276	525.35651	-474.27740	2310.36035	304.79443	168.99371	2346.22607	303.23380	-457.63562	
786	5.233	2403.62598	1024.94507	-143.66937	2406.91968	845.75208	-138.32277	2281.42700	1125.30762	-151.67766	2187.74731	941.15253	-151.36418	2319.60498	1073.13171	42.25813	2292.92065	906.51917	114.51662	2254.90161	938.50641	134.16498	2253.88867	841.58423	144.64468	2220.34888	874.36700	163.18491	2171.17749	805.78967	190.37341	2139.83032	779.38092	115.22679	2372.11816	622.95483	140.65552	2334.43774	608.91028	183.42725	2409.67676	544.68365	192.81871	2369.85474	539.24579	197.15059	2303.09570	1056.22144	-344.12418	2285.13818	899.48279	-433.43893	2238.65088	912.26776	-431.59268	2271.40991	827.54675	-469.72238	2218.88086	839.67822	-468.82602	2229.48096	768.70282	-495.46869	2190.68359	740.26563	-425.87924	2434.86621	611.65466	-408.61755	2399.15942	576.41052	-464.29593	2478.25391	534.96558	-471.48978	2431.33130	522.72949	-473.41916	2317.87695	304.95908	169.24495	2353.75464	303.25455	-457.38455	
787	5.240	2412.44238	1024.77258	-143.51920	2414.91309	845.40405	-138.04164	2290.47876	1125.30627	-151.51225	2196.29272	941.69507	-151.16255	2328.96045	1072.80090	42.75693	2304.49634	905.49377	114.64972	2266.34058	936.86554	135.03168	2266.81616	839.90173	145.01407	2233.06982	872.01190	164.12517	2184.55420	803.11230	191.38376	2153.05298	776.50476	116.28128	2386.52075	621.74713	140.97215	2349.22900	608.15021	184.41191	2423.46899	542.55646	193.66302	2383.70532	537.94116	198.16602	2313.40698	1055.38232	-344.53729	2297.86548	897.90350	-433.86557	2251.45386	910.54364	-432.69791	2285.24194	825.68335	-470.00180	2232.77661	837.46802	-469.77521	2244.17163	766.66309	-496.05045	2204.50342	738.03558	-427.06046	2449.72681	609.93042	-409.10068	2412.71265	574.23395	-464.44235	2490.20654	529.97388	-471.17242	2444.02173	520.09430	-472.54440	2325.32471	305.13461	169.60002	2361.33350	303.40363	-457.12567	
788	5.247	2421.35913	1024.74072	-143.26025	2423.04614	845.27863	-137.60753	2299.64673	1125.35706	-151.31992	2204.91895	942.22729	-150.94606	2338.34204	1072.51941	43.22980	2316.08960	904.44897	114.82006	2277.80054	935.20111	135.82162	2279.76978	838.19385	145.36882	2245.78369	869.74384	165.10480	2198.12280	800.36603	192.32666	2166.41724	773.52222	117.27068	2401.81738	620.41998	142.42006	2363.81958	606.95361	185.38737	2437.42749	540.23273	194.56645	2397.50928	536.39691	199.20912	2323.88379	1054.51038	-344.85519	2310.56885	896.41553	-433.95609	2264.28931	908.73846	-433.44867	2299.03198	823.84619	-470.12598	2246.98169	835.87445	-470.65381	2258.78979	764.59058	-496.47549	2218.37646	735.83191	-428.07535	2464.48584	607.92499	-409.55890	2426.44971	572.00037	-464.04575	2503.00317	526.07507	-470.78540	2456.83545	517.19586	-471.63300	2332.88574	305.23660	169.94099	2368.98413	303.42413	-456.76471	
789	5.253	2430.16479	1024.61035	-142.74266	2431.26953	845.03552	-137.26985	2308.73218	1125.40503	-151.08429	2213.52588	942.70013	-150.80910	2347.85278	1072.14063	43.78714	2327.81396	903.33087	114.92232	2289.42188	933.54303	136.63924	2292.71411	836.51355	145.73300	2258.57373	867.56848	166.05020	2211.78906	797.45325	193.14191	2179.67090	770.66589	118.32204	2416.43921	618.81909	143.10921	2378.59399	605.50165	186.44582	2451.29004	537.67957	195.49715	2411.39990	534.65411	200.31119	2334.28320	1053.74182	-345.17938	2323.18384	894.99347	-433.95840	2276.94849	906.90631	-434.01318	2312.72803	822.11243	-470.16235	2260.82837	833.70966	-471.20154	2273.36108	762.49860	-496.64572	2232.22192	733.83893	-428.99805	2479.22949	605.83850	-410.03906	2440.04785	569.47266	-463.73862	2515.76489	522.02332	-470.36679	2469.46313	514.22260	-470.57526	2340.49976	305.32394	170.32417	2376.54102	303.43613	-456.41696	
790	5.260	2439.03687	1024.41125	-142.62888	2439.39380	844.79028	-136.96953	2317.87842	1125.44592	-150.79149	2221.60181	943.84949	-150.58221	2357.44385	1071.69543	44.42125	2339.57715	902.15173	115.00133	2301.11768	931.77783	137.44098	2305.68970	834.85455	146.06207	2271.51636	865.40363	166.94408	2225.64722	794.59528	193.91052	2192.40674	768.17358	119.59477	2431.65454	617.13861	145.09007	2393.45557	603.86469	187.41959	2465.40576	534.87518	195.91510	2425.19458	532.75873	201.45639	2344.66821	1052.97729	-345.44382	2335.68921	893.59631	-433.92883	2289.56885	905.08295	-434.40198	2328.22241	821.32538	-467.82587	2274.54248	831.51660	-471.55640	2287.92700	760.41931	-496.69235	2246.90332	731.28607	-429.27817	2493.88501	603.47205	-410.49142	2453.73535	566.87537	-463.31223	2528.32983	517.91614	-469.88290	2482.08594	511.17740	-469.68674	2348.19458	305.45413	170.70355	2384.44849	303.43460	-455.91907	
791	5.267	2447.99951	1024.41357	-142.24217	2447.60400	844.48987	-136.65944	2327.01782	1125.48499	-150.49680	2230.38940	944.26648	-150.39716	2367.08154	1071.10266	44.94457	2351.42114	900.91284	115.13664	2312.85107	930.04895	138.10248	2318.66553	833.11121	146.24901	2284.36499	863.19104	167.64766	2239.56079	791.70142	194.59837	2207.33301	764.47461	120.07710	2446.82349	615.12506	146.28520	2408.47559	602.01538	188.34975	2479.23779	531.89221	196.89673	2439.07471	530.71637	202.61209	2355.10889	1052.20032	-345.69177	2348.10107	892.34821	-433.57364	2302.09155	903.18384	-434.63821	2342.00903	819.81995	-467.42813	2288.26074	829.29541	-471.73154	2302.49951	758.54425	-496.78146	2260.80371	729.02521	-429.33078	2508.47949	600.99731	-410.82227	2467.36792	564.16248	-462.95300	2541.01147	513.82477	-469.31519	2494.70288	508.09540	-468.81421	2355.86328	305.56137	171.12474	2392.01953	303.41656	-455.56836	
792	5.273	2456.81421	1024.11511	-141.94427	2455.82813	844.18005	-136.26974	2336.16968	1125.50244	-150.17097	2239.29688	944.70081	-150.26855	2376.83032	1070.69080	45.46738	2363.29248	899.62067	115.16838	2324.60181	928.24438	138.77927	2331.68628	831.37653	146.31461	2297.17236	860.93225	168.29172	2253.47900	788.81555	195.22963	2221.00513	761.82587	121.35650	2461.99121	612.91260	147.24010	2423.40161	600.16864	189.22983	2492.95020	528.59863	197.99486	2452.96704	528.62946	203.77344	2365.50024	1051.51721	-345.80643	2360.55615	890.98962	-433.23557	2314.17041	900.88898	-434.90665	2355.80640	818.28613	-466.92667	2301.57813	826.60846	-472.06345	2317.04443	756.19983	-496.21829	2275.08569	726.70068	-429.32611	2522.94116	598.24738	-410.90714	2481.06665	561.40765	-462.56042	2553.61450	509.75888	-468.74588	2507.49097	505.09338	-468.05002	2363.63306	305.67130	171.55812	2399.83862	303.35336	-455.05939	
793	5.280	2465.76196	1024.01770	-141.46397	2464.08496	843.89325	-136.01823	2345.24902	1125.59338	-149.81032	2248.11230	945.09528	-150.03334	2386.52319	1070.03821	46.06865	2375.13599	898.31348	115.16515	2336.41626	926.39136	139.33459	2344.66333	829.60986	146.29179	2310.11694	858.62219	168.78378	2267.57861	785.92358	195.73836	2234.91455	758.30151	121.98041	2476.72583	610.38171	147.73425	2438.42334	598.23822	190.15999	2507.11499	525.70502	198.81898	2467.04980	526.49988	204.91728	2375.78467	1050.80847	-345.92725	2372.83643	889.32806	-433.14758	2326.47925	898.84790	-434.89227	2369.47583	816.78168	-466.33630	2315.11523	824.21954	-471.98218	2331.62329	754.01483	-495.64844	2289.47852	724.35352	-429.15771	2537.42407	595.29950	-410.93549	2494.79004	558.45306	-462.18292	2566.31665	505.69531	-468.05063	2520.15942	501.95331	-467.28693	2371.37280	305.73749	172.01477	2407.42651	303.35040	-454.78848	
